<mxfile host="app.diagrams.net" modified="2024-04-02T14:18:25.156Z" agent="Mozilla/5.0 (Windows NT 10.0; Win64; x64; rv:109.0) Gecko/20100101 Firefox/115.0" version="23.1.7" etag="VR83KmUhg6fEVkY5sl5u" type="github">
  <diagram name="Page-1" id="QxhGJzYnd_nuJ1V4_ve0">
    <mxGraphModel>
      <root>
        <mxCell id="0" />
        <mxCell id="1" parent="0" />
      </root>
    </mxGraphModel>
  </diagram>
</mxfile>
